<mxfile host="app.diagrams.net" modified="2020-09-11T11:59:36.239Z" agent="5.0 (Macintosh)" etag="eMB7E-wGrYdPEV1ZG9dn" version="13.6.9" type="github">
  <diagram id="lunRRe2EwSeKriJDAwye" name="Page-1">
    <mxGraphModel dx="1119" dy="985" grid="1" gridSize="10" guides="1" tooltips="1" connect="1" arrows="1" fold="1" page="1" pageScale="1" pageWidth="850" pageHeight="1100" math="0" shadow="0">
      <root>
        <mxCell id="0" />
        <mxCell id="1" parent="0" />
        <mxCell id="BnBD0lyTiDFalFV81o5i-1" value="Albert Heijn" style="rounded=1;whiteSpace=wrap;html=1;" parent="1" vertex="1">
          <mxGeometry x="50" y="160" width="70" height="40" as="geometry" />
        </mxCell>
        <mxCell id="BnBD0lyTiDFalFV81o5i-2" value="Albert Heijn" style="rounded=1;whiteSpace=wrap;html=1;" parent="1" vertex="1">
          <mxGeometry x="200" y="90" width="70" height="40" as="geometry" />
        </mxCell>
        <mxCell id="BnBD0lyTiDFalFV81o5i-3" value="" style="endArrow=classic;html=1;exitX=1;exitY=0.5;exitDx=0;exitDy=0;entryX=0;entryY=0.5;entryDx=0;entryDy=0;" parent="1" source="BnBD0lyTiDFalFV81o5i-1" target="BnBD0lyTiDFalFV81o5i-2" edge="1">
          <mxGeometry width="50" height="50" relative="1" as="geometry">
            <mxPoint x="400" y="440" as="sourcePoint" />
            <mxPoint x="450" y="390" as="targetPoint" />
          </mxGeometry>
        </mxCell>
        <mxCell id="BnBD0lyTiDFalFV81o5i-4" value="4=6" style="rounded=1;whiteSpace=wrap;html=1;" parent="1" vertex="1">
          <mxGeometry x="60" y="330" width="70" height="40" as="geometry" />
        </mxCell>
        <mxCell id="BnBD0lyTiDFalFV81o5i-5" value="Plusmarkt" style="rounded=1;whiteSpace=wrap;html=1;" parent="1" vertex="1">
          <mxGeometry x="200" y="330" width="70" height="40" as="geometry" />
        </mxCell>
        <mxCell id="BnBD0lyTiDFalFV81o5i-6" value="Plus" style="rounded=1;whiteSpace=wrap;html=1;" parent="1" vertex="1">
          <mxGeometry x="340" y="330" width="70" height="40" as="geometry" />
        </mxCell>
        <mxCell id="BnBD0lyTiDFalFV81o5i-7" value="" style="endArrow=classic;html=1;exitX=1;exitY=0.5;exitDx=0;exitDy=0;entryX=0;entryY=0.5;entryDx=0;entryDy=0;" parent="1" source="BnBD0lyTiDFalFV81o5i-4" target="BnBD0lyTiDFalFV81o5i-5" edge="1">
          <mxGeometry width="50" height="50" relative="1" as="geometry">
            <mxPoint x="130" y="250" as="sourcePoint" />
            <mxPoint x="210" y="180" as="targetPoint" />
          </mxGeometry>
        </mxCell>
        <mxCell id="BnBD0lyTiDFalFV81o5i-8" value="" style="endArrow=classic;html=1;exitX=1;exitY=0.5;exitDx=0;exitDy=0;entryX=0;entryY=0.5;entryDx=0;entryDy=0;" parent="1" source="BnBD0lyTiDFalFV81o5i-5" target="BnBD0lyTiDFalFV81o5i-6" edge="1">
          <mxGeometry width="50" height="50" relative="1" as="geometry">
            <mxPoint x="140" y="360" as="sourcePoint" />
            <mxPoint x="210" y="360" as="targetPoint" />
          </mxGeometry>
        </mxCell>
        <mxCell id="BnBD0lyTiDFalFV81o5i-9" value="Dirk" style="rounded=1;whiteSpace=wrap;html=1;" parent="1" vertex="1">
          <mxGeometry x="270" y="490" width="70" height="40" as="geometry" />
        </mxCell>
        <mxCell id="BnBD0lyTiDFalFV81o5i-10" value="Bas van der Heijden" style="rounded=1;whiteSpace=wrap;html=1;" parent="1" vertex="1">
          <mxGeometry x="90" y="490" width="70" height="40" as="geometry" />
        </mxCell>
        <mxCell id="BnBD0lyTiDFalFV81o5i-11" value="" style="endArrow=classic;html=1;exitX=1;exitY=0.5;exitDx=0;exitDy=0;entryX=0;entryY=0.5;entryDx=0;entryDy=0;" parent="1" source="BnBD0lyTiDFalFV81o5i-10" target="BnBD0lyTiDFalFV81o5i-9" edge="1">
          <mxGeometry width="50" height="50" relative="1" as="geometry">
            <mxPoint x="280" y="300" as="sourcePoint" />
            <mxPoint x="350" y="300" as="targetPoint" />
          </mxGeometry>
        </mxCell>
        <mxCell id="BnBD0lyTiDFalFV81o5i-12" value="Garantmarkt" style="rounded=1;whiteSpace=wrap;html=1;" parent="1" vertex="1">
          <mxGeometry x="160" y="430" width="70" height="40" as="geometry" />
        </mxCell>
        <mxCell id="BnBD0lyTiDFalFV81o5i-13" value="" style="endArrow=classic;html=1;exitX=1;exitY=0.5;exitDx=0;exitDy=0;entryX=0;entryY=0.5;entryDx=0;entryDy=0;" parent="1" source="BnBD0lyTiDFalFV81o5i-12" target="BnBD0lyTiDFalFV81o5i-6" edge="1">
          <mxGeometry width="50" height="50" relative="1" as="geometry">
            <mxPoint x="280" y="360" as="sourcePoint" />
            <mxPoint x="340" y="350" as="targetPoint" />
          </mxGeometry>
        </mxCell>
        <UserObject label="https://nl.wikipedia.org/wiki/Lijst_van_supermarkten" link="https://nl.wikipedia.org/wiki/Lijst_van_supermarkten" id="BnBD0lyTiDFalFV81o5i-14">
          <mxCell style="text;whiteSpace=wrap;html=1;" parent="1" vertex="1">
            <mxGeometry x="90" y="30" width="300" height="30" as="geometry" />
          </mxCell>
        </UserObject>
        <mxCell id="uC9FSntawBr9f2thsel3-1" value="Boni" style="rounded=1;whiteSpace=wrap;html=1;" vertex="1" parent="1">
          <mxGeometry x="260" y="610" width="70" height="40" as="geometry" />
        </mxCell>
        <mxCell id="uC9FSntawBr9f2thsel3-2" value="Prisma" style="rounded=1;whiteSpace=wrap;html=1;" vertex="1" parent="1">
          <mxGeometry x="80" y="610" width="70" height="40" as="geometry" />
        </mxCell>
        <mxCell id="uC9FSntawBr9f2thsel3-3" value="Deen" style="rounded=1;whiteSpace=wrap;html=1;" vertex="1" parent="1">
          <mxGeometry x="100" y="720" width="70" height="40" as="geometry" />
        </mxCell>
        <mxCell id="uC9FSntawBr9f2thsel3-4" value="" style="endArrow=classic;html=1;exitX=1;exitY=0.5;exitDx=0;exitDy=0;entryX=0;entryY=0.5;entryDx=0;entryDy=0;" edge="1" parent="1" source="uC9FSntawBr9f2thsel3-2" target="uC9FSntawBr9f2thsel3-1">
          <mxGeometry width="50" height="50" relative="1" as="geometry">
            <mxPoint x="140" y="620" as="sourcePoint" />
            <mxPoint x="250" y="620" as="targetPoint" />
          </mxGeometry>
        </mxCell>
        <mxCell id="uC9FSntawBr9f2thsel3-5" value="Dirk van den Broek" style="rounded=1;whiteSpace=wrap;html=1;" vertex="1" parent="1">
          <mxGeometry x="90" y="550" width="70" height="40" as="geometry" />
        </mxCell>
        <mxCell id="uC9FSntawBr9f2thsel3-17" style="edgeStyle=orthogonalEdgeStyle;rounded=0;orthogonalLoop=1;jettySize=auto;html=1;exitX=1;exitY=0.5;exitDx=0;exitDy=0;" edge="1" parent="1" source="uC9FSntawBr9f2thsel3-6" target="uC9FSntawBr9f2thsel3-9">
          <mxGeometry relative="1" as="geometry" />
        </mxCell>
        <mxCell id="uC9FSntawBr9f2thsel3-6" value="Super de Boer" style="rounded=1;whiteSpace=wrap;html=1;" vertex="1" parent="1">
          <mxGeometry x="160" y="270" width="70" height="40" as="geometry" />
        </mxCell>
        <mxCell id="uC9FSntawBr9f2thsel3-11" value="" style="edgeStyle=orthogonalEdgeStyle;rounded=0;orthogonalLoop=1;jettySize=auto;html=1;" edge="1" parent="1" source="uC9FSntawBr9f2thsel3-7" target="uC9FSntawBr9f2thsel3-8">
          <mxGeometry relative="1" as="geometry" />
        </mxCell>
        <mxCell id="uC9FSntawBr9f2thsel3-7" value="A&amp;amp;O" style="rounded=1;whiteSpace=wrap;html=1;" vertex="1" parent="1">
          <mxGeometry x="50" y="220" width="70" height="40" as="geometry" />
        </mxCell>
        <mxCell id="uC9FSntawBr9f2thsel3-13" value="" style="edgeStyle=orthogonalEdgeStyle;rounded=0;orthogonalLoop=1;jettySize=auto;html=1;" edge="1" parent="1" source="uC9FSntawBr9f2thsel3-8" target="uC9FSntawBr9f2thsel3-9">
          <mxGeometry relative="1" as="geometry" />
        </mxCell>
        <mxCell id="uC9FSntawBr9f2thsel3-8" value="Markant" style="rounded=1;whiteSpace=wrap;html=1;" vertex="1" parent="1">
          <mxGeometry x="160" y="220" width="70" height="40" as="geometry" />
        </mxCell>
        <mxCell id="uC9FSntawBr9f2thsel3-9" value="Jumbo" style="rounded=1;whiteSpace=wrap;html=1;" vertex="1" parent="1">
          <mxGeometry x="280" y="220" width="70" height="40" as="geometry" />
        </mxCell>
        <mxCell id="uC9FSntawBr9f2thsel3-10" value="" style="endArrow=classic;html=1;" edge="1" parent="1">
          <mxGeometry width="50" height="50" relative="1" as="geometry">
            <mxPoint x="400" y="530" as="sourcePoint" />
            <mxPoint x="450" y="480" as="targetPoint" />
          </mxGeometry>
        </mxCell>
        <mxCell id="uC9FSntawBr9f2thsel3-12" value="" style="endArrow=classic;html=1;" edge="1" parent="1">
          <mxGeometry width="50" height="50" relative="1" as="geometry">
            <mxPoint x="400" y="530" as="sourcePoint" />
            <mxPoint x="450" y="480" as="targetPoint" />
          </mxGeometry>
        </mxCell>
        <mxCell id="uC9FSntawBr9f2thsel3-14" value="" style="endArrow=classic;html=1;" edge="1" parent="1">
          <mxGeometry width="50" height="50" relative="1" as="geometry">
            <mxPoint x="400" y="530" as="sourcePoint" />
            <mxPoint x="450" y="480" as="targetPoint" />
          </mxGeometry>
        </mxCell>
        <mxCell id="uC9FSntawBr9f2thsel3-16" value="" style="endArrow=classic;html=1;" edge="1" parent="1">
          <mxGeometry width="50" height="50" relative="1" as="geometry">
            <mxPoint x="400" y="530" as="sourcePoint" />
            <mxPoint x="450" y="480" as="targetPoint" />
          </mxGeometry>
        </mxCell>
      </root>
    </mxGraphModel>
  </diagram>
</mxfile>
